<svg
    width="64"
    height="64"
    viewBox="0 0 64 64"
    fill="none"
    xmlns="http://www.w3.org/2000/svg"
>
    <path
        d="M21 6c-1.65 0-3 1.35-3 3 0 .61.19 1.18.52 1.65-2.66 1.8-4.99 4.07-5.79 5.88-.8 1.81-.8 3.85 0 5.66.8 1.81 2.13 3.26 3.79 4.06-.33.47-.52 1.04-.52 1.65v11.82c0 .62.19 1.19.52 1.66-1.66.8-2.99 2.25-3.79 4.06-.8 1.81-.8 3.85 0 5.66.8 1.81 3.13 4.08 5.79 5.88-.33.47-.52 1.04-.52 1.65 0 1.65 1.35 3 3 3s3-1.35 3-3c0-.66-.19-1.26-.52-1.74 1.66-.8 3-2.25 3.79-4.06.8-1.81.8-3.85 0-5.66-.8-1.81-2.13-3.26-3.79-4.06.33-.47.52-1.04.52-1.66V26.09c0-.62-.19-1.19-.52-1.66 1.66-.8 3-2.25 3.79-4.06.8-1.81.8-3.85 0-5.66-.8-1.81-2.13-3.26-3.79-4.06.33-.47.52-1.04.52-1.65 0-1.65-1.35-3-3-3zm22 0c-1.65 0-3 1.35-3 3 0 .61.19 1.18.52 1.65-1.66.8-2.99 2.25-3.79 4.06-.8 1.81-.8 3.85 0 5.66.8 1.81 2.13 3.26 3.79 4.06-.33.47-.52 1.04-.52 1.66v11.82c0 .62.19 1.19.52 1.66-1.66.8-2.99 2.25-3.79 4.06-.8 1.81-.8 3.85 0 5.66.8 1.81 2.13 3.26 3.79 4.06-.33.48-.52 1.08-.52 1.74 0 1.65 1.35 3 3 3s3-1.35 3-3c0-.61-.19-1.18-.52-1.65 2.66-1.8 4.99-4.07 5.79-5.88.8-1.81.8-3.85 0-5.66-.8-1.81-2.13-3.26-3.79-4.06.33-.47.52-1.04.52-1.66V26.09c0-.62-.19-1.19-.52-1.66 1.66-.8 2.99-2.25 3.79-4.06.8-1.81.8-3.85 0-5.66-.8-1.81-3.13-4.08-5.79-5.88.33-.47.52-1.04.52-1.65 0-1.65-1.35-3-3-3z"
        fill="#1E88E5"
    />
</svg>
